File Name

Predators 2010 R5 LiNE H264.mp4

File Size
Format : MPEG-4
Format profile : Base Media
Codec ID : isom
File size : 1.03 GiB
Duration : 1h 42mn
Overall bit rate : 1 432 Kbps

Video
ID : 1
Format : AVC
Format/Info : Advanced Video Codec
Format profile : High@L4.1
Format settings, CABAC : Yes
Format settings, ReFrames : 3 frames
Codec ID : avc1
Codec ID/Info : Advanced Video Coding
Duration : 1h 42mn
Bit rate mode : Variable
Bit rate : 1 300 Kbps
Maximum bit rate : 9 178 Kbps
Width : 720 pixels
Height : 304 pixels
Display aspect ratio : 2.35:1
Frame rate mode : Constant
Frame rate : 25.000 fps
Resolution : 24 bits
Colorimetry : 4:2:0
Scan type : Progressive
Bits/(Pixel*Frame) : 0.238
Stream size : 953 MiB (91%)

Audio 
ID : 2
Format : AAC
Format/Info : Advanced Audio Codec
Format version : Version 4
Format profile : LC
Format settings, SBR : No
Codec ID : 40
Duration : 1h 42mn
Bit rate mode : Variable
Bit rate : 128 Kbps
Maximum bit rate : 133 Kbps
Channel(s) : 2 channels
Channel positions : L R
Sampling rate : 48.0 KHz
Resolution : 16 bits
Stream size : 93.8 MiB (9%)

English Subs : ----

Language : English









 
http://www.imdb.com/title/tt1424381/



Release Date: 9 July 2010 (USA) 

Genre: Action | Adventure | Sci-Fi | Thriller 

Plot: Chosen for their ability to kill without conscience, a group of killers, some trained and some who are not, must endeavour the alien race of predators that have set out to target them as prey. Dropped into the vast jungle of a distant world, these human predators must learn just who, or what, they are up against, and that their ability, knowledge and wits are tested to the limits in the battle of survival of kill or be killed.

Cast:

Adrien Brody :Royce
Topher Grace :Edwin
Alice Braga :Isabelle
Walton Goggins :Stans
Oleg Taktarov :Nikolai
Laurence Fishburne :Noland
Danny Trejo :Cuchillo
Louis Ozawa Changchien :Hanzo
Mahershalalhashbaz Ali :Mombasa
Carey Jones :Tracker Predator
Brian Steele :Berserker Predator








================================== 
http://thepiratebay.org/user/hiest
==================================









Screenshots:
 
http://postimg.com/image/22000/21858.jpg
 
http://postimg.com/image/22000/21859.jpg